<svg id="Layer_1" data-name="Layer 1" xmlns="http://www.w3.org/2000/svg" width="384.765" height="402.9451" viewBox="0 0 384.765 402.9451"><defs><style>.cls-1,.cls-2{stroke:#000;stroke-miterlimit:10;stroke-width:2px;}.cls-2{fill:none;}</style></defs><title>v3</title><path class="cls-1" d="M344,503.8466v79.0985h78.7249a14.1213,14.1213,0,0,0-3.2154-4.5016,15.0558,15.0558,0,0,0-9.6462-3.8584H360.99a11.5637,11.5637,0,0,1-6.4308-3.8585,11.731,11.731,0,0,1-2.5723-8.36v-50.16a12.7606,12.7606,0,0,0-3.2154-5.1446C346.5431,504.898,345.1261,504.1279,344,503.8466Z" transform="translate(-343 -181)"/><path class="cls-1" d="M356.6621,556.3039V200.6392a22.4463,22.4463,0,0,1,13.7156,15.3233c-.4216,37.796-3.4413,311.7617-.0488,324.5529a23.3063,23.3063,0,0,0,4.0178,8.0384,25.47,25.47,0,0,0,12.0577,7.2347c9.7019,2.6827,129.668,2.5182,299.8346,0a26.6029,26.6029,0,0,1,15.2731,6.4307,25.4209,25.4209,0,0,1,5.6269,7.2346H365.5044a8.8423,8.8423,0,0,1-8.8423-8.8423Z" transform="translate(-343 -181)"/><path class="cls-1" d="M387.2083,600" transform="translate(-343 -181)"/><path class="cls-1" d="M726.765,261.0985V182H655.1423a14.2263,14.2263,0,0,0,2.888,4.5015,12.7374,12.7374,0,0,0,8.664,3.8585h43.8978a10.175,10.175,0,0,1,5.776,3.8585,12.7234,12.7234,0,0,1,2.31,8.36v50.16a13.101,13.101,0,0,0,2.888,5.1446A11.1682,11.1682,0,0,0,726.765,261.0985Z" transform="translate(-343 -181)"/><path class="cls-1" d="M713.57,208.0115V564.48a22.4463,22.4463,0,0,1-13.7156-15.3233c.4216-37.796,3.4414-312.5655.0488-325.3567a23.3086,23.3086,0,0,0-4.0178-8.0385,25.4716,25.4716,0,0,0-12.0577-7.2346c-9.7019-2.6827-130.4718-2.5182-300.6385,0a26.6029,26.6029,0,0,1-15.273-6.4307,25.4222,25.4222,0,0,1-5.627-7.2347H706.2682a7.3016,7.3016,0,0,1,7.3016,7.3016Z" transform="translate(-343 -181)"/><path class="cls-2" d="M646.6,465.7a32.3342,32.3342,0,0,0-7.3629-10.3081c-8.5-7.9293-18.8007-8.72-22.0887-8.8354H505.2323a26.4788,26.4788,0,0,1-14.7258-8.8355,26.8625,26.8625,0,0,1-5.89-19.1436V303.7161A29.07,29.07,0,0,0,464,284.5726" transform="translate(-343 -181)"/><path class="cls-2" d="M464,284.5726V465.7H646.6" transform="translate(-343 -181)"/></svg>